<mxfile host="Electron" agent="Mozilla/5.0 (Windows NT 10.0; Win64; x64) AppleWebKit/537.36 (KHTML, like Gecko) draw.io/28.2.7 Chrome/138.0.7204.251 Electron/37.7.1 Safari/537.36" version="28.2.7">
  <diagram name="local" id="Kk6_3_Y1URUUISTR59o7">
    <mxGraphModel dx="1151" dy="988" grid="1" gridSize="10" guides="1" tooltips="1" connect="1" arrows="1" fold="1" page="1" pageScale="1" pageWidth="827" pageHeight="1169" math="0" shadow="0">
      <root>
        <mxCell id="0" />
        <mxCell id="1" parent="0" />
        <mxCell id="IIJiYfch3AKSF0pPYvsu-1" value="" style="rounded=1;whiteSpace=wrap;html=1;fillColor=none;" parent="1" vertex="1">
          <mxGeometry x="40" y="70" width="600" height="680" as="geometry" />
        </mxCell>
        <mxCell id="IIJiYfch3AKSF0pPYvsu-3" value="" style="rounded=1;whiteSpace=wrap;html=1;fillColor=none;" parent="1" vertex="1">
          <mxGeometry x="70" y="539" width="380" height="100" as="geometry" />
        </mxCell>
        <mxCell id="qIay8CRbhtrqo_sK3Hdp-68" value="" style="rounded=1;whiteSpace=wrap;html=1;fillColor=none;" parent="1" vertex="1">
          <mxGeometry x="81" y="120" width="350" height="400" as="geometry" />
        </mxCell>
        <mxCell id="IIJiYfch3AKSF0pPYvsu-2" value="&lt;div&gt;筐体 ≒ ホストマシン&lt;/div&gt;" style="text;html=1;align=center;verticalAlign=middle;resizable=0;points=[];autosize=1;strokeColor=none;fillColor=none;" parent="1" vertex="1">
          <mxGeometry x="76" y="755" width="140" height="30" as="geometry" />
        </mxCell>
        <mxCell id="IIJiYfch3AKSF0pPYvsu-4" value="&lt;b&gt;WSL2 Ubuntu&lt;/b&gt;" style="text;html=1;align=center;verticalAlign=middle;resizable=0;points=[];autosize=1;strokeColor=none;fillColor=none;" parent="1" vertex="1">
          <mxGeometry x="218" y="580" width="100" height="30" as="geometry" />
        </mxCell>
        <mxCell id="IIJiYfch3AKSF0pPYvsu-5" value="&lt;div&gt;&lt;span style=&quot;text-wrap-mode: nowrap; background-color: transparent; color: light-dark(rgb(0, 0, 0), rgb(255, 255, 255));&quot;&gt;bridge&lt;/span&gt;&lt;/div&gt;&lt;div&gt;&lt;span style=&quot;text-wrap-mode: nowrap;&quot;&gt;172.20.0.0/28&lt;/span&gt;&lt;/div&gt;" style="rounded=1;whiteSpace=wrap;html=1;fillColor=none;" parent="1" vertex="1">
          <mxGeometry x="264" y="270" width="80" height="227" as="geometry" />
        </mxCell>
        <mxCell id="IIJiYfch3AKSF0pPYvsu-7" value="WordPress&lt;div&gt;Container&lt;/div&gt;&lt;div&gt;&lt;br&gt;&lt;/div&gt;&lt;div&gt;&lt;br&gt;&lt;/div&gt;&lt;div&gt;&lt;br&gt;&lt;/div&gt;" style="rounded=1;whiteSpace=wrap;html=1;fillColor=none;align=left;" parent="1" vertex="1">
          <mxGeometry x="96" y="398" width="130" height="90" as="geometry" />
        </mxCell>
        <mxCell id="IIJiYfch3AKSF0pPYvsu-8" value="phpmyadmin&lt;div&gt;Container&lt;/div&gt;&lt;div&gt;&lt;br&gt;&lt;/div&gt;&lt;div&gt;&lt;br&gt;&lt;/div&gt;&lt;div&gt;&lt;br&gt;&lt;/div&gt;&lt;div&gt;&lt;br&gt;&lt;/div&gt;" style="rounded=1;whiteSpace=wrap;html=1;fillColor=none;align=left;" parent="1" vertex="1">
          <mxGeometry x="95" y="273" width="135" height="105" as="geometry" />
        </mxCell>
        <mxCell id="IIJiYfch3AKSF0pPYvsu-9" value="MariaDB&lt;div&gt;Container&lt;br&gt;&lt;/div&gt;&lt;div&gt;&lt;br&gt;&lt;/div&gt;&lt;div&gt;&lt;br&gt;&lt;/div&gt;&lt;div&gt;&lt;br&gt;&lt;/div&gt;" style="rounded=1;whiteSpace=wrap;html=1;fillColor=none;align=left;" parent="1" vertex="1">
          <mxGeometry x="93" y="150" width="130" height="95" as="geometry" />
        </mxCell>
        <mxCell id="IIJiYfch3AKSF0pPYvsu-15" value="hosts ( OS Windows )" style="swimlane;fontStyle=0;childLayout=stackLayout;horizontal=1;startSize=30;horizontalStack=0;resizeParent=1;resizeParentMax=0;resizeLast=0;collapsible=1;marginBottom=0;whiteSpace=wrap;html=1;fillColor=#fff2cc;strokeColor=#d6b656;" parent="1" vertex="1">
          <mxGeometry x="474.76" y="275.5" width="160" height="60" as="geometry">
            <mxRectangle x="460" y="167.5" width="160" height="30" as="alternateBounds" />
          </mxGeometry>
        </mxCell>
        <mxCell id="IIJiYfch3AKSF0pPYvsu-16" value="127.0.0.1 nissy-dev01.com" style="text;strokeColor=#d6b656;fillColor=#fff2cc;align=left;verticalAlign=middle;spacingLeft=4;spacingRight=4;overflow=hidden;points=[[0,0.5],[1,0.5]];portConstraint=eastwest;rotatable=0;whiteSpace=wrap;html=1;" parent="IIJiYfch3AKSF0pPYvsu-15" vertex="1">
          <mxGeometry y="30" width="160" height="30" as="geometry" />
        </mxCell>
        <mxCell id="IIJiYfch3AKSF0pPYvsu-19" value="host.docker.internal" style="text;html=1;align=center;verticalAlign=middle;resizable=0;points=[];autosize=1;strokeColor=none;fillColor=none;" parent="1" vertex="1">
          <mxGeometry x="217.5" y="754" width="130" height="30" as="geometry" />
        </mxCell>
        <mxCell id="IIJiYfch3AKSF0pPYvsu-20" value="" style="shape=actor;whiteSpace=wrap;html=1;" parent="1" vertex="1">
          <mxGeometry x="670" y="357" width="40" height="60" as="geometry" />
        </mxCell>
        <mxCell id="IIJiYfch3AKSF0pPYvsu-21" value="" style="endArrow=classic;html=1;rounded=0;strokeColor=#0000FF;strokeWidth=3;" parent="1" source="IIJiYfch3AKSF0pPYvsu-20" target="IIJiYfch3AKSF0pPYvsu-11" edge="1">
          <mxGeometry width="50" height="50" relative="1" as="geometry">
            <mxPoint x="740" y="780" as="sourcePoint" />
            <mxPoint x="790" y="730" as="targetPoint" />
          </mxGeometry>
        </mxCell>
        <mxCell id="IIJiYfch3AKSF0pPYvsu-22" value="&lt;font style=&quot;font-size: 18px;&quot;&gt;&lt;b&gt;≒&lt;/b&gt;&lt;/font&gt;" style="text;html=1;align=center;verticalAlign=middle;resizable=0;points=[];autosize=1;strokeColor=none;fillColor=none;" parent="1" vertex="1">
          <mxGeometry x="194" y="748" width="40" height="40" as="geometry" />
        </mxCell>
        <mxCell id="IIJiYfch3AKSF0pPYvsu-25" value="&lt;font style=&quot;color: rgb(51, 51, 255);&quot;&gt;▶WordPress&lt;br&gt;http://nissy-dev01.com&lt;/font&gt;&lt;div&gt;&lt;span style=&quot;background-color: transparent;&quot;&gt;&lt;font style=&quot;color: rgb(51, 51, 255);&quot;&gt;（ http://127.0.0.1:80 ）&lt;/font&gt;&lt;/span&gt;&lt;/div&gt;&lt;div&gt;&lt;br&gt;&lt;/div&gt;&lt;div&gt;▶phpmyadmin&lt;/div&gt;&lt;div&gt;&lt;div&gt;http://127.0.0.1:8080&lt;/div&gt;&lt;/div&gt;" style="text;html=1;align=left;verticalAlign=middle;resizable=0;points=[];autosize=1;strokeColor=none;fillColor=none;" parent="1" vertex="1">
          <mxGeometry x="650" y="423" width="150" height="100" as="geometry" />
        </mxCell>
        <mxCell id="qIay8CRbhtrqo_sK3Hdp-41" value="" style="group" parent="1" vertex="1" connectable="0">
          <mxGeometry x="190" y="357" width="67" height="30" as="geometry" />
        </mxCell>
        <mxCell id="qIay8CRbhtrqo_sK3Hdp-39" value="Listen&lt;div&gt;&lt;span style=&quot;background-color: transparent; color: light-dark(rgb(0, 0, 0), rgb(255, 255, 255));&quot;&gt;Port&lt;/span&gt;&lt;/div&gt;" style="text;html=1;whiteSpace=wrap;strokeColor=none;fillColor=none;align=left;verticalAlign=middle;rounded=0;movable=1;resizable=1;rotatable=1;deletable=1;editable=1;locked=0;connectable=1;" parent="qIay8CRbhtrqo_sK3Hdp-41" vertex="1">
          <mxGeometry x="29.03846153846154" width="27.05769230769231" height="30" as="geometry" />
        </mxCell>
        <mxCell id="qIay8CRbhtrqo_sK3Hdp-48" value="eth0&lt;div&gt;&lt;span style=&quot;&quot;&gt;172.20.0.2&lt;/span&gt;&lt;/div&gt;" style="whiteSpace=wrap;html=1;fillColor=#d5e8d4;strokeColor=#82b366;align=left;" parent="1" vertex="1">
          <mxGeometry x="162" y="409" width="60" height="30" as="geometry" />
        </mxCell>
        <mxCell id="qIay8CRbhtrqo_sK3Hdp-24" value="80" style="ellipse;whiteSpace=wrap;html=1;aspect=fixed;fillColor=#dae8fc;strokeColor=#6c8ebf;movable=1;resizable=1;rotatable=1;deletable=1;editable=1;locked=0;connectable=1;" parent="1" vertex="1">
          <mxGeometry x="218" y="333" width="24" height="24" as="geometry" />
        </mxCell>
        <mxCell id="qIay8CRbhtrqo_sK3Hdp-40" value="3306" style="ellipse;whiteSpace=wrap;html=1;aspect=fixed;fillColor=#dae8fc;strokeColor=#6c8ebf;movable=1;resizable=1;rotatable=1;deletable=1;editable=1;locked=0;connectable=1;" parent="1" vertex="1">
          <mxGeometry x="210" y="202" width="24" height="24" as="geometry" />
        </mxCell>
        <mxCell id="qIay8CRbhtrqo_sK3Hdp-25" value="Listen&lt;div&gt;&lt;span style=&quot;background-color: transparent; color: light-dark(rgb(0, 0, 0), rgb(255, 255, 255));&quot;&gt;Port&lt;/span&gt;&lt;/div&gt;" style="text;html=1;whiteSpace=wrap;strokeColor=none;fillColor=none;align=left;verticalAlign=middle;rounded=0;movable=1;resizable=1;rotatable=1;deletable=1;editable=1;locked=0;connectable=1;" parent="1" vertex="1">
          <mxGeometry x="210" y="226" width="37" height="30" as="geometry" />
        </mxCell>
        <mxCell id="qIay8CRbhtrqo_sK3Hdp-56" value="vethyyy" style="whiteSpace=wrap;html=1;fillColor=#d5e8d4;strokeColor=#82b366;" parent="1" vertex="1">
          <mxGeometry x="264" y="315.5" width="40" height="20" as="geometry" />
        </mxCell>
        <mxCell id="qIay8CRbhtrqo_sK3Hdp-57" value="vethzzz" style="whiteSpace=wrap;html=1;fillColor=#d5e8d4;strokeColor=#82b366;" parent="1" vertex="1">
          <mxGeometry x="264" y="443" width="40" height="20" as="geometry" />
        </mxCell>
        <mxCell id="qIay8CRbhtrqo_sK3Hdp-34" value="Listen&lt;div&gt;&lt;span style=&quot;background-color: transparent; color: light-dark(rgb(0, 0, 0), rgb(255, 255, 255));&quot;&gt;Port&lt;/span&gt;&lt;/div&gt;" style="text;html=1;whiteSpace=wrap;strokeColor=none;fillColor=none;align=left;verticalAlign=middle;rounded=0;movable=1;resizable=1;rotatable=1;deletable=1;editable=1;locked=0;connectable=1;" parent="1" vertex="1">
          <mxGeometry x="209.5" y="469" width="40" height="30" as="geometry" />
        </mxCell>
        <mxCell id="qIay8CRbhtrqo_sK3Hdp-35" value="80" style="ellipse;whiteSpace=wrap;html=1;aspect=fixed;fillColor=#dae8fc;strokeColor=#6c8ebf;movable=1;resizable=1;rotatable=1;deletable=1;editable=1;locked=0;connectable=1;" parent="1" vertex="1">
          <mxGeometry x="211" y="446" width="24" height="24" as="geometry" />
        </mxCell>
        <mxCell id="qIay8CRbhtrqo_sK3Hdp-67" value="&lt;div&gt;作業用シェル&lt;/div&gt;" style="rounded=1;whiteSpace=wrap;html=1;fillColor=#fff2cc;strokeColor=#d6b656;" parent="1" vertex="1">
          <mxGeometry x="97" y="570" width="99" height="50" as="geometry" />
        </mxCell>
        <mxCell id="qIay8CRbhtrqo_sK3Hdp-69" value="&lt;b&gt;Docker&lt;/b&gt;" style="text;html=1;whiteSpace=wrap;strokeColor=none;fillColor=none;align=center;verticalAlign=middle;rounded=0;" parent="1" vertex="1">
          <mxGeometry x="180" y="114" width="110" height="30" as="geometry" />
        </mxCell>
        <mxCell id="qIay8CRbhtrqo_sK3Hdp-77" value="" style="endArrow=classic;html=1;rounded=0;strokeColor=#0000FF;strokeWidth=3;exitX=0.25;exitY=0;exitDx=0;exitDy=0;entryX=0.75;entryY=1;entryDx=0;entryDy=0;" parent="1" source="qIay8CRbhtrqo_sK3Hdp-90" target="IIJiYfch3AKSF0pPYvsu-5" edge="1">
          <mxGeometry width="50" height="50" relative="1" as="geometry">
            <mxPoint x="330" y="250" as="sourcePoint" />
            <mxPoint x="477.5" y="430" as="targetPoint" />
          </mxGeometry>
        </mxCell>
        <mxCell id="qIay8CRbhtrqo_sK3Hdp-78" value="" style="endArrow=classic;html=1;rounded=0;strokeColor=#0000FF;strokeWidth=3;entryX=1;entryY=0.5;entryDx=0;entryDy=0;exitX=0;exitY=0.25;exitDx=0;exitDy=0;" parent="1" source="qIay8CRbhtrqo_sK3Hdp-57" target="qIay8CRbhtrqo_sK3Hdp-48" edge="1">
          <mxGeometry width="50" height="50" relative="1" as="geometry">
            <mxPoint x="496" y="710" as="sourcePoint" />
            <mxPoint x="450" y="863" as="targetPoint" />
          </mxGeometry>
        </mxCell>
        <mxCell id="qIay8CRbhtrqo_sK3Hdp-80" value="&lt;div&gt;&lt;span style=&quot;background-color: transparent; color: light-dark(rgb(0, 0, 0), rgb(255, 255, 255));&quot;&gt;&lt;br&gt;&lt;/span&gt;&lt;/div&gt;&lt;div&gt;&lt;span style=&quot;background-color: transparent; color: light-dark(rgb(0, 0, 0), rgb(255, 255, 255));&quot;&gt;&lt;br&gt;&lt;/span&gt;&lt;/div&gt;&lt;div&gt;&lt;span style=&quot;text-wrap-mode: nowrap; background-color: transparent; color: light-dark(rgb(0, 0, 0), rgb(255, 255, 255));&quot;&gt;bridge&lt;/span&gt;&lt;/div&gt;&lt;div&gt;&lt;span style=&quot;text-wrap-mode: nowrap;&quot;&gt;172.20.0.16/28&lt;/span&gt;&lt;/div&gt;" style="rounded=1;whiteSpace=wrap;html=1;fillColor=none;" parent="1" vertex="1">
          <mxGeometry x="263" y="144" width="80" height="107" as="geometry" />
        </mxCell>
        <mxCell id="qIay8CRbhtrqo_sK3Hdp-46" value="vethxxx" style="whiteSpace=wrap;html=1;fillColor=#d5e8d4;strokeColor=#82b366;" parent="1" vertex="1">
          <mxGeometry x="264" y="164" width="40" height="20" as="geometry" />
        </mxCell>
        <mxCell id="qIay8CRbhtrqo_sK3Hdp-82" value="eth1&lt;div&gt;172.20.0.18&lt;/div&gt;" style="whiteSpace=wrap;html=1;fillColor=#d5e8d4;strokeColor=#82b366;align=left;" parent="1" vertex="1">
          <mxGeometry x="104" y="448" width="67" height="30" as="geometry" />
        </mxCell>
        <mxCell id="qIay8CRbhtrqo_sK3Hdp-83" value="eth1&lt;div&gt;172.20.0.19&lt;/div&gt;" style="whiteSpace=wrap;html=1;fillColor=#d5e8d4;strokeColor=#82b366;align=left;" parent="1" vertex="1">
          <mxGeometry x="104" y="338" width="67" height="30" as="geometry" />
        </mxCell>
        <mxCell id="qIay8CRbhtrqo_sK3Hdp-84" value="eth0&lt;div&gt;172.20.0.3&lt;/div&gt;" style="whiteSpace=wrap;html=1;fillColor=#d5e8d4;strokeColor=#82b366;align=left;" parent="1" vertex="1">
          <mxGeometry x="157" y="299" width="67" height="30" as="geometry" />
        </mxCell>
        <mxCell id="qIay8CRbhtrqo_sK3Hdp-86" value="eth0&lt;div&gt;172.20.0.20&lt;/div&gt;" style="whiteSpace=wrap;html=1;fillColor=#d5e8d4;strokeColor=#82b366;align=left;" parent="1" vertex="1">
          <mxGeometry x="113" y="215" width="67" height="30" as="geometry" />
        </mxCell>
        <mxCell id="qIay8CRbhtrqo_sK3Hdp-88" value="&lt;span style=&quot;text-wrap-mode: nowrap;&quot;&gt;dockerd&lt;/span&gt;" style="rounded=1;whiteSpace=wrap;html=1;fillColor=#d5e8d4;strokeColor=#82b366;" parent="1" vertex="1">
          <mxGeometry x="355" y="423" width="50" height="30" as="geometry" />
        </mxCell>
        <mxCell id="NFW14yOV7sewRTRfpMcW-1" value="&lt;div&gt;&lt;span style=&quot;text-wrap-mode: nowrap; background-color: transparent; color: light-dark(rgb(0, 0, 0), rgb(255, 255, 255));&quot;&gt;&lt;b&gt;Windows11 ホスト&lt;/b&gt;&lt;/span&gt;&lt;/div&gt;&lt;div&gt;&lt;span style=&quot;text-wrap-mode: nowrap; background-color: transparent; color: light-dark(rgb(0, 0, 0), rgb(255, 255, 255));&quot;&gt;&lt;br&gt;&lt;/span&gt;&lt;/div&gt;&lt;div&gt;&lt;span style=&quot;text-wrap-mode: nowrap; background-color: transparent; color: light-dark(rgb(0, 0, 0), rgb(255, 255, 255));&quot;&gt;&lt;br&gt;&lt;/span&gt;&lt;/div&gt;&lt;div&gt;&lt;span style=&quot;text-wrap-mode: nowrap; background-color: transparent; color: light-dark(rgb(0, 0, 0), rgb(255, 255, 255));&quot;&gt;&lt;br&gt;&lt;/span&gt;&lt;/div&gt;&lt;div&gt;&lt;span style=&quot;text-wrap-mode: nowrap; background-color: transparent; color: light-dark(rgb(0, 0, 0), rgb(255, 255, 255));&quot;&gt;&lt;br&gt;&lt;/span&gt;&lt;/div&gt;&lt;div&gt;&lt;span style=&quot;text-wrap-mode: nowrap; background-color: transparent; color: light-dark(rgb(0, 0, 0), rgb(255, 255, 255));&quot;&gt;&lt;br&gt;&lt;/span&gt;&lt;/div&gt;&lt;div&gt;&lt;span style=&quot;text-wrap-mode: nowrap; background-color: transparent; color: light-dark(rgb(0, 0, 0), rgb(255, 255, 255));&quot;&gt;&lt;br&gt;&lt;/span&gt;&lt;/div&gt;&lt;div&gt;&lt;span style=&quot;text-wrap-mode: nowrap; background-color: transparent; color: light-dark(rgb(0, 0, 0), rgb(255, 255, 255));&quot;&gt;&lt;br&gt;&lt;/span&gt;&lt;/div&gt;&lt;div&gt;&lt;span style=&quot;text-wrap-mode: nowrap; background-color: transparent; color: light-dark(rgb(0, 0, 0), rgb(255, 255, 255));&quot;&gt;&lt;br&gt;&lt;/span&gt;&lt;/div&gt;&lt;div&gt;&lt;span style=&quot;text-wrap-mode: nowrap; background-color: transparent; color: light-dark(rgb(0, 0, 0), rgb(255, 255, 255));&quot;&gt;&lt;br&gt;&lt;/span&gt;&lt;/div&gt;&lt;div&gt;&lt;span style=&quot;text-wrap-mode: nowrap; background-color: transparent; color: light-dark(rgb(0, 0, 0), rgb(255, 255, 255));&quot;&gt;&lt;br&gt;&lt;/span&gt;&lt;/div&gt;&lt;div&gt;&lt;span style=&quot;text-wrap-mode: nowrap; background-color: transparent; color: light-dark(rgb(0, 0, 0), rgb(255, 255, 255));&quot;&gt;&lt;br&gt;&lt;/span&gt;&lt;/div&gt;&lt;div&gt;&lt;span style=&quot;text-wrap-mode: nowrap; background-color: transparent; color: light-dark(rgb(0, 0, 0), rgb(255, 255, 255));&quot;&gt;&lt;br&gt;&lt;/span&gt;&lt;/div&gt;&lt;div&gt;&lt;span style=&quot;text-wrap-mode: nowrap; background-color: transparent; color: light-dark(rgb(0, 0, 0), rgb(255, 255, 255));&quot;&gt;&lt;br&gt;&lt;/span&gt;&lt;/div&gt;&lt;div&gt;&lt;span style=&quot;text-wrap-mode: nowrap; background-color: transparent; color: light-dark(rgb(0, 0, 0), rgb(255, 255, 255));&quot;&gt;&lt;br&gt;&lt;/span&gt;&lt;/div&gt;&lt;div&gt;&lt;span style=&quot;text-wrap-mode: nowrap; background-color: transparent; color: light-dark(rgb(0, 0, 0), rgb(255, 255, 255));&quot;&gt;&lt;br&gt;&lt;/span&gt;&lt;/div&gt;&lt;div&gt;&lt;span style=&quot;text-wrap-mode: nowrap; background-color: transparent; color: light-dark(rgb(0, 0, 0), rgb(255, 255, 255));&quot;&gt;&lt;br&gt;&lt;/span&gt;&lt;/div&gt;&lt;div&gt;&lt;span style=&quot;text-wrap-mode: nowrap; background-color: transparent; color: light-dark(rgb(0, 0, 0), rgb(255, 255, 255));&quot;&gt;&lt;br&gt;&lt;/span&gt;&lt;/div&gt;&lt;div&gt;&lt;span style=&quot;text-wrap-mode: nowrap; background-color: transparent; color: light-dark(rgb(0, 0, 0), rgb(255, 255, 255));&quot;&gt;&lt;br&gt;&lt;/span&gt;&lt;/div&gt;" style="rounded=1;whiteSpace=wrap;html=1;fillColor=none;" parent="1" vertex="1">
          <mxGeometry x="481" y="332" width="128.5" height="310" as="geometry" />
        </mxCell>
        <mxCell id="IIJiYfch3AKSF0pPYvsu-11" value="" style="sketch=0;pointerEvents=1;shadow=0;dashed=0;html=1;strokeColor=none;fillColor=#434445;aspect=fixed;labelPosition=center;verticalLabelPosition=bottom;verticalAlign=top;align=center;outlineConnect=0;shape=mxgraph.vvd.web_browser;" parent="1" vertex="1">
          <mxGeometry x="490" y="398.0000000000001" width="93.25" height="66.21" as="geometry" />
        </mxCell>
        <mxCell id="qIay8CRbhtrqo_sK3Hdp-99" value="" style="endArrow=classic;html=1;rounded=0;strokeColor=#0000FF;strokeWidth=3;entryX=0.25;entryY=0;entryDx=0;entryDy=0;" parent="1" edge="1" target="0JUC3skS1HcNso4MOFxe-9" source="IIJiYfch3AKSF0pPYvsu-11">
          <mxGeometry width="50" height="50" relative="1" as="geometry">
            <mxPoint x="538.5" y="493" as="sourcePoint" />
            <mxPoint x="538.5" y="596" as="targetPoint" />
          </mxGeometry>
        </mxCell>
        <mxCell id="0JUC3skS1HcNso4MOFxe-1" value="※WSL2 と Windows11 は、Hyper-V上で稼働" style="text;html=1;whiteSpace=wrap;strokeColor=none;fillColor=none;align=center;verticalAlign=middle;rounded=0;" vertex="1" parent="1">
          <mxGeometry x="90" y="702" width="260" height="30" as="geometry" />
        </mxCell>
        <mxCell id="0JUC3skS1HcNso4MOFxe-3" value="&lt;b&gt;Hyper-V&amp;nbsp; &amp;nbsp; &amp;nbsp; &amp;nbsp; &amp;nbsp; &amp;nbsp; &amp;nbsp; &amp;nbsp; &amp;nbsp; &amp;nbsp; &amp;nbsp; &amp;nbsp; &amp;nbsp; &amp;nbsp; &amp;nbsp; &amp;nbsp; &amp;nbsp; &amp;nbsp; &amp;nbsp; &amp;nbsp; &amp;nbsp; &amp;nbsp; &amp;nbsp; &amp;nbsp; &amp;nbsp; &amp;nbsp; &amp;nbsp; &amp;nbsp; &amp;nbsp; &amp;nbsp; &amp;nbsp; &amp;nbsp; &amp;nbsp; &amp;nbsp; &amp;nbsp; &amp;nbsp; &amp;nbsp; &amp;nbsp; &amp;nbsp; &amp;nbsp; &amp;nbsp; &amp;nbsp; &amp;nbsp;&lt;/b&gt;" style="rounded=1;whiteSpace=wrap;html=1;fillColor=none;" vertex="1" parent="1">
          <mxGeometry x="68" y="650" width="545" height="60" as="geometry" />
        </mxCell>
        <mxCell id="0JUC3skS1HcNso4MOFxe-7" value="&lt;font style=&quot;color: rgb(0, 0, 255);&quot;&gt;http://localhost:80&lt;/font&gt;" style="text;html=1;whiteSpace=wrap;strokeColor=none;fillColor=none;align=center;verticalAlign=middle;rounded=0;" vertex="1" parent="1">
          <mxGeometry x="561" y="556" width="60" height="30" as="geometry" />
        </mxCell>
        <mxCell id="0JUC3skS1HcNso4MOFxe-9" value="wslhost.exe&lt;div&gt;Listner&lt;/div&gt;&lt;div&gt;ポート：XXX&lt;/div&gt;" style="rounded=1;whiteSpace=wrap;html=1;fillColor=#fff2cc;strokeColor=#d6b656;" vertex="1" parent="1">
          <mxGeometry x="514.76" y="613" width="80" height="50" as="geometry" />
        </mxCell>
        <mxCell id="0JUC3skS1HcNso4MOFxe-6" value="" style="endArrow=classic;html=1;rounded=0;strokeColor=#0000FF;strokeWidth=3;exitX=0;exitY=1;exitDx=0;exitDy=0;entryX=1;entryY=0.75;entryDx=0;entryDy=0;" edge="1" parent="1" source="0JUC3skS1HcNso4MOFxe-9" target="0JUC3skS1HcNso4MOFxe-13">
          <mxGeometry width="50" height="50" relative="1" as="geometry">
            <mxPoint x="661" y="570" as="sourcePoint" />
            <mxPoint x="404" y="500.4000000000001" as="targetPoint" />
          </mxGeometry>
        </mxCell>
        <mxCell id="qIay8CRbhtrqo_sK3Hdp-90" value="&lt;div&gt;&lt;span style=&quot;background-color: transparent; color: light-dark(rgb(0, 0, 0), rgb(255, 255, 255));&quot;&gt;TCP／IPスタック&lt;/span&gt;&lt;/div&gt;&lt;div&gt;&lt;span style=&quot;background-color: transparent; color: light-dark(rgb(0, 0, 0), rgb(255, 255, 255));&quot;&gt;Linux&lt;/span&gt;&lt;span style=&quot;background-color: transparent; color: light-dark(rgb(0, 0, 0), rgb(255, 255, 255));&quot;&gt;カーネル&lt;/span&gt;&lt;/div&gt;" style="text;html=1;whiteSpace=wrap;strokeColor=#d6b656;fillColor=#fff2cc;align=center;verticalAlign=middle;rounded=1;" parent="1" vertex="1">
          <mxGeometry x="330" y="550.25" width="100" height="41.5" as="geometry" />
        </mxCell>
        <mxCell id="qIay8CRbhtrqo_sK3Hdp-94" value="&lt;div&gt;127.0.0.1 =&amp;nbsp;&lt;span style=&quot;background-color: transparent; color: light-dark(rgb(0, 0, 255), rgb(205, 205, 255));&quot;&gt;172.X&lt;/span&gt;&lt;span style=&quot;background-color: transparent; color: light-dark(rgb(0, 0, 255), rgb(205, 205, 255));&quot;&gt;.Y.Z&lt;/span&gt;&lt;/div&gt;" style="text;html=1;whiteSpace=wrap;strokeColor=none;fillColor=none;align=center;verticalAlign=middle;rounded=0;fontColor=#0000FF;" parent="1" vertex="1">
          <mxGeometry x="307" y="671" width="140" height="30" as="geometry" />
        </mxCell>
        <mxCell id="0JUC3skS1HcNso4MOFxe-13" value="eth0&lt;div&gt;127.0.0.1&lt;/div&gt;" style="whiteSpace=wrap;html=1;fillColor=#fff2cc;strokeColor=#d6b656;align=left;" vertex="1" parent="1">
          <mxGeometry x="363" y="650" width="67" height="30" as="geometry" />
        </mxCell>
        <mxCell id="0JUC3skS1HcNso4MOFxe-15" value="" style="endArrow=classic;html=1;rounded=0;strokeColor=#0000FF;strokeWidth=3;exitX=0.5;exitY=0;exitDx=0;exitDy=0;entryX=0.5;entryY=1;entryDx=0;entryDy=0;" edge="1" parent="1" source="0JUC3skS1HcNso4MOFxe-13" target="qIay8CRbhtrqo_sK3Hdp-90">
          <mxGeometry width="50" height="50" relative="1" as="geometry">
            <mxPoint x="665" y="790" as="sourcePoint" />
            <mxPoint x="580" y="814" as="targetPoint" />
          </mxGeometry>
        </mxCell>
      </root>
    </mxGraphModel>
  </diagram>
</mxfile>
